{
    "asset": {
        "version": "2.0"
    },
    "scene": 0,
    "scenes": [
        {
            "nodes": [0]
        }
    ],
    "nodes": [
        {
            "mesh": 0
        }
    ],
    "meshes": [
        {
            "primitives": [
                {
                    "attributes": {
                        "POSITION": 0
                    },
                    "indices": 1,
                    "mode": 4
                }
            ]
        }
    ],
    "buffers": [
        {
            "uri": "data:application/octet-stream;base64,",
            "byteLength": 24
        }
    ],
    "bufferViews": [
        {
            "buffer": 0,
            "byteOffset": 0,
            "byteLength": 24,
            "target": 34962
        }
    ],
    "accessors": [
        {
            "bufferView": 0,
            "byteOffset": 0,
            "componentType": 5126,
            "count": 2,
            "type": "VEC3",
            "min": [0, 0, 0],
            "max": [1, 1, 0]
        },
        {
            "bufferView": 0,
            "byteOffset": 0,
            "componentType": 5125,
            "count": 2,
            "type": "SCALAR"
        }
    ]
} 